<svg width="500" height="394" viewBox="0 0 500 394" fill="none" xmlns="http://www.w3.org/2000/svg">
<g id="hero_bot 1">
<g id="body">
<g id="lefthand">
<g id="Group">
<path id="Vector" d="M218.812 295.835C219.736 296.972 221.052 298.549 222.887 298.677C227.364 298.994 231.253 290.426 232.702 287.233C239.351 272.587 242.755 249.213 233.342 243.572C231.791 242.643 228.499 241.392 224.824 241.979C220.211 242.716 217.338 245.976 216.776 246.615C211.876 252.174 214.99 256.97 214.857 280.834C214.845 283.027 214.8 286.25 215.69 289.571C216.26 291.701 217.216 293.872 218.812 295.835Z" fill="url(#paint0_linear_1_2)"/>
</g>
</g>
<g id="Group_2">
<g id="Group_3">
<path id="Vector_2" d="M301.319 234.276L271.118 234.397L240.357 234.524C233.973 234.551 227.801 237.281 223.805 242.26C221.472 245.162 220.159 248.339 219.965 251.582C219.938 252.106 219.947 252.629 219.975 253.153C220.076 254.962 220.498 256.313 220.71 256.937C229.583 284.051 233.468 293.191 243.572 304.184C247.237 308.18 252.803 309.99 254.594 310.614C260.2 312.597 265.243 312.573 268.998 312.548C269.629 312.544 270.223 312.539 270.779 312.544L271.449 312.544C272.002 312.539 272.596 312.544 273.226 312.548C276.977 312.573 282.026 312.597 287.633 310.614C289.425 309.99 294.981 308.18 298.655 304.184C300.308 302.384 301.797 300.639 303.156 298.848C304.195 297.507 305.158 296.138 306.077 294.714C311.395 286.467 315.188 276.273 321.518 256.937C321.738 256.286 322.188 254.833 322.262 252.904C322.27 252.711 322.27 252.51 322.27 252.299C322.27 251.857 322.243 251.426 322.206 250.994C322.17 250.608 322.115 250.214 322.05 249.828C321.582 247.109 320.305 244.472 318.303 242.028C314.181 237.011 307.902 234.276 301.415 234.276C301.383 234.276 301.351 234.276 301.319 234.276Z" fill="url(#paint1_linear_1_2)"/>
</g>
</g>
<g id="rightHand">
<g id="Group_4">
<path id="Vector_3" d="M310.705 240.632C306.113 241.481 303.318 244.81 302.772 245.463C298.01 251.139 301.239 255.857 301.688 279.719C301.756 283.316 301.801 289.694 306.007 294.619C306.958 295.732 308.312 297.276 310.149 297.361C314.634 297.567 318.313 288.91 319.684 285.681C325.973 270.878 328.807 247.427 319.258 242.018C318.013 241.312 315.671 240.43 312.931 240.43C312.212 240.43 311.466 240.491 310.705 240.632Z" fill="url(#paint2_linear_1_2)"/>
</g>
<g id="Group_5">
<path id="Vector_4" d="M319.542 259.85C319.407 257.286 318.926 255.4 317.964 251.628C316.706 246.695 315.128 244.289 316.153 243.337C316.82 242.717 318.135 243.136 318.432 243.231C322.941 244.669 324.338 253.131 324.145 258.426C324.025 261.668 323.233 265.293 322.046 265.454C321.858 265.479 321.393 265.454 321.06 265.16C319.734 263.988 319.645 261.798 319.542 259.85Z" fill="white"/>
</g>
<g id="Group_6">
<path id="Vector_5" d="M322.639 268.897C322.639 269.414 322.22 269.834 321.703 269.834C321.186 269.834 320.767 269.414 320.767 268.897C320.767 268.38 321.186 267.961 321.703 267.961C322.22 267.961 322.639 268.38 322.639 268.897Z" fill="white"/>
</g>
</g>
<g id="Group_7">
<g id="Group_8">
<path id="Vector_6" d="M250.376 103.648C247.881 103.648 245.859 105.67 245.859 108.165V120.258C245.859 122.752 247.881 124.774 250.376 124.774H284.21C286.704 124.774 288.727 122.752 288.727 120.258V108.165C288.727 105.67 286.704 103.648 284.21 103.648H250.376Z" fill="url(#paint3_linear_1_2)"/>
</g>
<g id="Group_9">
<path id="Vector_7" d="M261.015 72.7262C261.015 76.1922 263.826 79.0022 267.293 79.0022C270.759 79.0022 273.569 76.1922 273.569 72.7262C273.569 69.2592 270.759 66.4482 267.293 66.4482C263.826 66.4482 261.015 69.2592 261.015 72.7262Z" fill="url(#paint4_linear_1_2)"/>
</g>
<g id="Group_10">
<path id="Vector_8" d="M271.656 70.2751C271.656 71.3321 270.799 72.1891 269.742 72.1891C268.685 72.1891 267.828 71.3321 267.828 70.2751C267.828 69.2181 268.685 68.3611 269.742 68.3611C270.799 68.3611 271.656 69.2181 271.656 70.2751Z" fill="white"/>
</g>
<g id="Group_11">
<path id="Vector_9" d="M287.486 109.902C287.33 109.924 287.23 109.007 286.466 107.589C286.466 107.589 286.109 106.927 285.701 106.365C284.385 104.555 279.928 104.595 279.578 104.598C272.634 104.659 268.172 104.219 268.173 104.26C268.174 104.296 271.429 104.229 273.815 104.181C280.547 104.044 284.556 103.682 286.275 105.485C286.988 106.233 287.346 107.207 287.346 107.207C287.834 108.529 287.672 109.875 287.486 109.902Z" fill="white"/>
</g>
</g>
<g id="Group_12">
<g id="Group_13">
<path id="Vector_10" d="M253.515 113.752C218.91 113.752 190.597 142.065 190.597 176.671V195.041C190.597 214.49 206.509 230.404 225.959 230.404H308.626C328.156 230.404 343.989 214.571 343.989 195.041V176.671C343.989 142.065 315.676 113.752 281.07 113.752H253.515Z" fill="url(#paint5_linear_1_2)"/>
</g>
<g id="Group_14">
<path id="Vector_11" d="M321.337 133.877C321.42 136.808 319.027 140.312 316.286 140.611C313.718 140.892 311.667 138.269 309.553 135.563C307.468 132.896 302.909 126.044 304.725 124.106C307.119 121.549 321.141 126.963 321.337 133.877Z" fill="white"/>
</g>
<g id="Group_15">
<path id="Vector_12" d="M300.056 120.526C300.056 121.731 299.079 122.708 297.874 122.708C296.669 122.708 295.693 121.731 295.693 120.526C295.693 119.321 296.669 118.344 297.874 118.344C299.079 118.344 300.056 119.321 300.056 120.526Z" fill="white"/>
</g>
</g>
<g id="Group_16">
<g id="Group_17">
<path id="Vector_13" d="M286.042 200.653C285.873 202.316 284.488 203.597 282.824 203.758L259.83 205.975C258.167 206.136 256.563 205.143 256.078 203.544C255.863 202.834 255.697 202.1 255.584 201.347C255.553 201.138 255.608 200.926 255.738 200.76C255.868 200.594 256.06 200.49 256.27 200.469L285.279 197.671C285.485 197.651 285.691 197.717 285.848 197.854C286.005 197.99 286.099 198.184 286.107 198.392C286.141 199.156 286.118 199.911 286.042 200.653Z" fill="#EDFCFF"/>
</g>
<g id="Group_18">
<path id="Vector_14" d="M282.828 203.76L259.829 205.973C258.258 206.129 256.752 205.258 256.172 203.825C258.34 210.529 264.936 215.057 272.238 214.351C279.642 213.644 285.309 207.783 286.043 200.655C285.869 202.318 284.491 203.595 282.828 203.76Z" fill="#D154C3"/>
</g>
</g>
<g id="Group_19">
<g id="Group_20">
<path id="Vector_15" d="M244.589 147.685C225.604 148.672 210.117 161.82 207.758 178.918L207.707 179.286C207.011 184.335 209.794 189.255 214.723 191.692C216.731 192.684 218.98 193.204 221.267 193.204H313.319C315.606 193.204 317.855 192.684 319.863 191.692C324.792 189.255 327.574 184.335 326.878 179.286C326.861 179.162 326.844 179.038 326.827 178.915C324.46 161.752 308.859 148.658 289.802 147.675C283.392 147.345 276.734 147.143 269.844 147.103C268.99 147.098 268.14 147.095 267.293 147.095C259.419 147.095 251.84 147.308 244.589 147.685Z" fill="url(#paint6_linear_1_2)"/>
</g>
</g>
<g id="Group_21">
<g id="Group_22">
<path id="Vector_16" d="M321.026 174.525C320.326 175.019 315.446 165.079 302.349 156.461C297.746 153.431 293.2 151.273 293.47 150.645C293.744 150.007 298.863 151.193 302.962 153.094C316.019 159.152 321.858 173.938 321.026 174.525Z" fill="white"/>
</g>
</g>
<g id="Group_23">
<g id="Group_24">
<path id="Vector_17" d="M260.391 172.078C260.391 181.664 252.618 189.436 243.032 189.436C233.445 189.436 225.674 181.664 225.674 172.078C225.674 162.492 233.445 154.72 243.032 154.72C252.618 154.72 260.391 162.492 260.391 172.078Z" fill="url(#paint7_linear_1_2)"/>
</g>
<g id="Group_25">
<path id="Vector_18" d="M255.49 172.078C255.49 178.958 249.912 184.536 243.032 184.536C236.151 184.536 230.573 178.958 230.573 172.078C230.573 165.197 236.151 159.62 243.032 159.62C249.912 159.62 255.49 165.197 255.49 172.078Z" fill="#EDFCFF"/>
</g>
<g id="Group_26">
<path id="Vector_19" d="M232.567 172.078C232.567 177.858 237.253 182.542 243.031 182.542C248.811 182.542 253.496 177.858 253.496 172.078C253.496 166.299 248.811 161.614 243.031 161.614C237.253 161.614 232.567 166.299 232.567 172.078Z" fill="#071B28"/>
</g>
<g id="Group_27">
<path id="Vector_20" d="M249.736 169.366C249.736 171.507 248.001 173.243 245.86 173.243C243.718 173.243 241.983 171.507 241.983 169.366C241.983 167.225 243.718 165.491 245.86 165.491C248.001 165.491 249.736 167.225 249.736 169.366Z" fill="#EDFCFF"/>
</g>
<g id="Group_28">
<path id="Vector_21" d="M243.031 180.103C243.031 180.957 242.339 181.649 241.484 181.649C240.63 181.649 239.938 180.957 239.938 180.103C239.938 179.249 240.63 178.557 241.484 178.557C242.339 178.557 243.031 179.249 243.031 180.103Z" fill="#EDFCFF"/>
</g>
<g id="Group_29">
<path id="Vector_22" d="M237.649 177.783C237.649 178.21 237.303 178.556 236.876 178.556C236.449 178.556 236.103 178.21 236.103 177.783C236.103 177.356 236.449 177.01 236.876 177.01C237.303 177.01 237.649 177.356 237.649 177.783Z" fill="#EDFCFF"/>
</g>
</g>
<g id="Group_30">
<g id="Group_31">
<path id="Vector_23" d="M307.391 172.078C307.391 181.664 299.618 189.436 290.032 189.436C280.445 189.436 272.674 181.664 272.674 172.078C272.674 162.492 280.445 154.72 290.032 154.72C299.618 154.72 307.391 162.492 307.391 172.078Z" fill="url(#paint8_linear_1_2)"/>
</g>
<g id="Group_32">
<path id="Vector_24" d="M302.49 172.078C302.49 178.958 296.912 184.536 290.032 184.536C283.151 184.536 277.573 178.958 277.573 172.078C277.573 165.197 283.151 159.62 290.032 159.62C296.912 159.62 302.49 165.197 302.49 172.078Z" fill="#EDFCFF"/>
</g>
<g id="Group_33">
<path id="Vector_25" d="M279.567 172.078C279.567 177.858 284.253 182.542 290.031 182.542C295.811 182.542 300.496 177.858 300.496 172.078C300.496 166.299 295.811 161.614 290.031 161.614C284.253 161.614 279.567 166.299 279.567 172.078Z" fill="#071B28"/>
</g>
<g id="Group_34">
<path id="Vector_26" d="M296.736 169.366C296.736 171.507 295.001 173.243 292.86 173.243C290.718 173.243 288.983 171.507 288.983 169.366C288.983 167.225 290.718 165.491 292.86 165.491C295.001 165.491 296.736 167.225 296.736 169.366Z" fill="#EDFCFF"/>
</g>
<g id="Group_35">
<path id="Vector_27" d="M290.031 180.103C290.031 180.957 289.339 181.649 288.484 181.649C287.63 181.649 286.938 180.957 286.938 180.103C286.938 179.249 287.63 178.557 288.484 178.557C289.339 178.557 290.031 179.249 290.031 180.103Z" fill="#EDFCFF"/>
</g>
<g id="Group_36">
<path id="Vector_28" d="M284.649 177.783C284.649 178.21 284.303 178.556 283.876 178.556C283.449 178.556 283.103 178.21 283.103 177.783C283.103 177.356 283.449 177.01 283.876 177.01C284.303 177.01 284.649 177.356 284.649 177.783Z" fill="#EDFCFF"/>
</g>
</g>
</g>
</g>
<defs>
<linearGradient id="paint0_linear_1_2" x1="234.838" y1="249.777" x2="185.024" y2="367.17" gradientUnits="userSpaceOnUse">
<stop stop-color="#4A90E2"/>
<stop offset="0.5" stop-color="#5CA1F1"/>
<stop offset="1" stop-color="#0F3654"/>
</linearGradient>
<linearGradient id="paint1_linear_1_2" x1="246.104" y1="311.437" x2="279.104" y2="252.437" gradientUnits="userSpaceOnUse">
<stop stop-color="#5CA1F1"/>
<stop offset="0.5" stop-color="#4A90E2"/>
<stop offset="1" stop-color="#2237E7"/>
</linearGradient>
<linearGradient id="paint2_linear_1_2" x1="327.909" y1="307.999" x2="305.409" y2="234.499" gradientUnits="userSpaceOnUse">
<stop stop-color="#207CE7"/>
<stop offset="0.5" stop-color="#3A8DEE"/>
<stop offset="1" stop-color="#3C8BE7"/>
</linearGradient>
<linearGradient id="paint3_linear_1_2" x1="217.293" y1="114.711" x2="286.293" y2="114.711" gradientUnits="userSpaceOnUse">
<stop stop-color="#F1E0A4"/>
<stop offset="0.5" stop-color="#4A90E2"/>
<stop offset="1" stop-color="#5CA1F1"/>
</linearGradient>
<linearGradient id="paint4_linear_1_2" x1="252.292" y1="74.4752" x2="275.042" y2="74.4752" gradientUnits="userSpaceOnUse">
<stop stop-color="#F1E0A4"/>
<stop offset="0.5" stop-color="#4A90E2"/>
<stop offset="1" stop-color="#5CA1F1"/>
</linearGradient>
<linearGradient id="paint5_linear_1_2" x1="202.293" y1="216.578" x2="335.793" y2="140.578" gradientUnits="userSpaceOnUse">
<stop stop-color="#4A90E2"/>
<stop offset="0.5" stop-color="#5CA1F1"/>
<stop offset="1" stop-color="#2237E7"/>
</linearGradient>
<linearGradient id="paint6_linear_1_2" x1="267.793" y1="177.15" x2="266.793" y2="122.65" gradientUnits="userSpaceOnUse">
<stop stop-color="#092739"/>
<stop offset="0.5" stop-color="#033570"/>
<stop offset="1" stop-color="#4A90E2"/>
</linearGradient>
<linearGradient id="paint7_linear_1_2" x1="243.532" y1="186.078" x2="244.032" y2="133.078" gradientUnits="userSpaceOnUse">
<stop stop-color="#092739"/>
<stop offset="0.5" stop-color="#0C2E46"/>
<stop offset="1" stop-color="#0F3654"/>
</linearGradient>
<linearGradient id="paint8_linear_1_2" x1="290.532" y1="186.078" x2="291.032" y2="133.078" gradientUnits="userSpaceOnUse">
<stop stop-color="#092739"/>
<stop offset="0.5" stop-color="#0C2E46"/>
<stop offset="1" stop-color="#0F3654"/>
</linearGradient>
</defs>
</svg>
