<svg width="154" height="247" viewBox="0 0 154 247" fill="none" xmlns="http://www.w3.org/2000/svg">
<g id="body">
<g id="lefthand">
<g id="Group">
<path id="Vector" d="M28.8124 229.835C29.736 230.972 31.0521 232.549 32.8868 232.677C37.3644 232.994 41.2532 224.426 42.7022 221.233C49.3511 206.587 52.7553 183.213 43.3416 177.572C41.7915 176.643 38.4994 175.392 34.8241 175.979C30.2107 176.716 27.3375 179.976 26.7758 180.615C21.8765 186.174 24.99 190.97 24.8569 214.834C24.845 217.027 24.7998 220.25 25.6896 223.571C26.2603 225.701 27.2157 227.872 28.8124 229.835Z" fill="url(#paint0_linear_1_3)"/>
</g>
</g>
<g id="body_2">
<g id="Group_2">
<path id="Vector_2" d="M111.319 168.276L81.1179 168.397L50.3569 168.524C43.9729 168.551 37.8009 171.281 33.8049 176.26C31.4719 179.162 30.1589 182.339 29.9649 185.582C29.9379 186.106 29.9469 186.629 29.9749 187.153C30.0759 188.962 30.4979 190.313 30.7099 190.937C39.583 218.051 43.468 227.191 53.572 238.184C57.237 242.18 62.803 243.99 64.594 244.614C70.2 246.597 75.243 246.573 78.998 246.548C79.629 246.544 80.223 246.539 80.779 246.544L81.449 246.544C82.002 246.539 82.596 246.544 83.226 246.548C86.977 246.573 92.026 246.597 97.633 244.614C99.425 243.99 104.981 242.18 108.655 238.184C110.308 236.384 111.797 234.639 113.156 232.848C114.195 231.507 115.158 230.138 116.077 228.714C121.395 220.467 125.188 210.273 131.518 190.937C131.738 190.286 132.188 188.833 132.262 186.904C132.27 186.711 132.27 186.51 132.27 186.299C132.27 185.857 132.243 185.426 132.206 184.994C132.17 184.608 132.115 184.214 132.05 183.828C131.582 181.109 130.305 178.472 128.303 176.028C124.181 171.011 117.902 168.276 111.415 168.276C111.383 168.276 111.351 168.276 111.319 168.276Z" fill="url(#paint1_linear_1_3)"/>
</g>
</g>
<g id="rightHand">
<g id="Group_3">
<path id="Vector_3" d="M120.705 174.632C116.113 175.481 113.318 178.81 112.772 179.463C108.01 185.139 111.239 189.857 111.688 213.719C111.756 217.316 111.801 223.694 116.007 228.619C116.958 229.732 118.312 231.276 120.149 231.361C124.634 231.567 128.313 222.91 129.684 219.681C135.973 204.878 138.807 181.427 129.258 176.018C128.013 175.312 125.671 174.43 122.931 174.43C122.212 174.43 121.466 174.491 120.705 174.632Z" fill="url(#paint2_linear_1_3)"/>
</g>
<g id="Group_4">
<path id="Vector_4" d="M129.542 193.85C129.407 191.286 128.926 189.4 127.964 185.628C126.706 180.695 125.128 178.289 126.153 177.337C126.82 176.717 128.135 177.136 128.432 177.231C132.941 178.669 134.338 187.131 134.145 192.426C134.025 195.668 133.233 199.293 132.046 199.454C131.858 199.479 131.393 199.454 131.06 199.16C129.734 197.988 129.645 195.798 129.542 193.85Z" fill="white"/>
</g>
<g id="Group_5">
<path id="Vector_5" d="M132.639 202.897C132.639 203.414 132.22 203.834 131.703 203.834C131.186 203.834 130.767 203.414 130.767 202.897C130.767 202.38 131.186 201.961 131.703 201.961C132.22 201.961 132.639 202.38 132.639 202.897Z" fill="white"/>
</g>
</g>
<g id="head">
<g id="Group_6">
<g id="Group_7">
<path id="Vector_6" d="M60.3761 37.6482C57.8811 37.6482 55.8591 39.6702 55.8591 42.1652V54.2582C55.8591 56.7522 57.8811 58.7742 60.3761 58.7742H94.2101C96.7041 58.7742 98.7271 56.7522 98.7271 54.2582V42.1652C98.7271 39.6702 96.7041 37.6482 94.2101 37.6482H60.3761Z" fill="url(#paint3_linear_1_3)"/>
</g>
<g id="Group_8">
<path id="Vector_7" d="M71.0151 6.72615C71.0151 10.1922 73.8261 13.0022 77.2931 13.0022C80.7591 13.0022 83.5691 10.1922 83.5691 6.72615C83.5691 3.25915 80.7591 0.448151 77.2931 0.448151C73.8261 0.448151 71.0151 3.25915 71.0151 6.72615Z" fill="url(#paint4_linear_1_3)"/>
</g>
<g id="Group_9">
<path id="Vector_8" d="M81.6561 4.27515C81.6561 5.33215 80.7991 6.18915 79.7421 6.18915C78.6851 6.18915 77.8281 5.33215 77.8281 4.27515C77.8281 3.21815 78.6851 2.36115 79.7421 2.36115C80.7991 2.36115 81.6561 3.21815 81.6561 4.27515Z" fill="white"/>
</g>
<g id="Group_10">
<path id="Vector_9" d="M97.4861 43.9022C97.3301 43.9242 97.2301 43.0072 96.4661 41.5892C96.4661 41.5892 96.1091 40.9272 95.7011 40.3652C94.3851 38.5552 89.9281 38.5952 89.5781 38.5982C82.6341 38.6592 78.1721 38.2192 78.1731 38.2602C78.1741 38.2962 81.4291 38.2292 83.8151 38.1812C90.5471 38.0442 94.5561 37.6822 96.2751 39.4852C96.9881 40.2332 97.3461 41.2072 97.3461 41.2072C97.8341 42.5292 97.6721 43.8752 97.4861 43.9022Z" fill="white"/>
</g>
</g>
<g id="Group_11">
<g id="Group_12">
<path id="Vector_10" d="M63.5151 47.7521C28.9101 47.7521 0.597122 76.0651 0.597122 110.671V129.041C0.597122 148.49 16.5091 164.404 35.9591 164.404H118.626C138.156 164.404 153.989 148.571 153.989 129.041V110.671C153.989 76.0651 125.676 47.7521 91.0701 47.7521H63.5151Z" fill="url(#paint5_linear_1_3)"/>
</g>
<g id="Group_13">
<path id="Vector_11" d="M131.337 67.8771C131.42 70.8081 129.027 74.3121 126.286 74.6111C123.718 74.8921 121.667 72.2691 119.553 69.5631C117.468 66.8961 112.909 60.0441 114.725 58.1061C117.119 55.5491 131.141 60.9631 131.337 67.8771Z" fill="white"/>
</g>
<g id="Group_14">
<path id="Vector_12" d="M110.056 54.5261C110.056 55.7311 109.079 56.7081 107.874 56.7081C106.669 56.7081 105.693 55.7311 105.693 54.5261C105.693 53.3211 106.669 52.3441 107.874 52.3441C109.079 52.3441 110.056 53.3211 110.056 54.5261Z" fill="white"/>
</g>
</g>
<g id="face">
<g id="Group_15">
<g id="Group_16">
<path id="Vector_13" d="M54.5891 81.6852C35.6041 82.6722 20.1171 95.8202 17.7581 112.918L17.7071 113.286C17.0111 118.335 19.7941 123.255 24.7231 125.692C26.7311 126.684 28.9801 127.204 31.2671 127.204H123.319C125.606 127.204 127.855 126.684 129.863 125.692C134.792 123.255 137.574 118.335 136.878 113.286C136.861 113.162 136.844 113.038 136.827 112.915C134.46 95.7522 118.859 82.6582 99.8021 81.6752C93.3921 81.3452 86.7341 81.1432 79.8441 81.1032C78.9901 81.0982 78.1401 81.0952 77.2931 81.0952C69.4191 81.0952 61.8401 81.3082 54.5891 81.6852Z" fill="url(#paint6_linear_1_3)"/>
</g>
</g>
<g id="Group_17">
<g id="Group_18">
<path id="Vector_14" d="M131.026 108.525C130.326 109.019 125.446 99.0792 112.349 90.4612C107.746 87.4312 103.2 85.2732 103.47 84.6452C103.744 84.0072 108.863 85.1932 112.962 87.0942C126.019 93.1522 131.858 107.938 131.026 108.525Z" fill="white"/>
</g>
</g>
<g id="Group_19">
<g id="Group_20">
<path id="Vector_15" d="M70.3911 106.078C70.3911 115.664 62.6181 123.436 53.0321 123.436C43.4451 123.436 35.6741 115.664 35.6741 106.078C35.6741 96.4921 43.4451 88.7201 53.0321 88.7201C62.6181 88.7201 70.3911 96.4921 70.3911 106.078Z" fill="url(#paint7_linear_1_3)"/>
</g>
<g id="Group_21">
<path id="Vector_16" d="M65.4901 106.078C65.4901 112.958 59.9121 118.536 53.0321 118.536C46.1511 118.536 40.5731 112.958 40.5731 106.078C40.5731 99.1972 46.1511 93.6202 53.0321 93.6202C59.9121 93.6202 65.4901 99.1972 65.4901 106.078Z" fill="#EDFCFF"/>
</g>
<g id="Group_22">
<path id="Vector_17" d="M42.5671 106.078C42.5671 111.858 47.2531 116.542 53.0311 116.542C58.8111 116.542 63.4961 111.858 63.4961 106.078C63.4961 100.299 58.8111 95.6141 53.0311 95.6141C47.2531 95.6141 42.5671 100.299 42.5671 106.078Z" fill="#071B28"/>
</g>
<g id="Group_23">
<path id="Vector_18" d="M59.7361 103.366C59.7361 105.507 58.0011 107.243 55.8601 107.243C53.7181 107.243 51.9831 105.507 51.9831 103.366C51.9831 101.225 53.7181 99.4911 55.8601 99.4911C58.0011 99.4911 59.7361 101.225 59.7361 103.366Z" fill="#EDFCFF"/>
</g>
<g id="Group_24">
<path id="Vector_19" d="M53.0311 114.103C53.0311 114.957 52.3391 115.649 51.4841 115.649C50.6301 115.649 49.9381 114.957 49.9381 114.103C49.9381 113.249 50.6301 112.557 51.4841 112.557C52.3391 112.557 53.0311 113.249 53.0311 114.103Z" fill="#EDFCFF"/>
</g>
<g id="Group_25">
<path id="Vector_20" d="M47.6491 111.783C47.6491 112.21 47.3031 112.556 46.8761 112.556C46.4491 112.556 46.1031 112.21 46.1031 111.783C46.1031 111.356 46.4491 111.01 46.8761 111.01C47.3031 111.01 47.6491 111.356 47.6491 111.783Z" fill="#EDFCFF"/>
</g>
</g>
<g id="Group_26">
<g id="Group_27">
<path id="Vector_21" d="M117.391 106.078C117.391 115.664 109.618 123.436 100.032 123.436C90.4451 123.436 82.6741 115.664 82.6741 106.078C82.6741 96.4922 90.4451 88.7202 100.032 88.7202C109.618 88.7202 117.391 96.4922 117.391 106.078Z" fill="url(#paint8_linear_1_3)"/>
</g>
<g id="Group_28">
<path id="Vector_22" d="M112.49 106.078C112.49 112.958 106.912 118.536 100.032 118.536C93.1511 118.536 87.5731 112.958 87.5731 106.078C87.5731 99.1972 93.1511 93.6202 100.032 93.6202C106.912 93.6202 112.49 99.1972 112.49 106.078Z" fill="#EDFCFF"/>
</g>
<g id="Group_29">
<path id="Vector_23" d="M89.5671 106.078C89.5671 111.858 94.2531 116.542 100.031 116.542C105.811 116.542 110.496 111.858 110.496 106.078C110.496 100.299 105.811 95.6142 100.031 95.6142C94.2531 95.6142 89.5671 100.299 89.5671 106.078Z" fill="#071B28"/>
</g>
<g id="Group_30">
<path id="Vector_24" d="M106.736 103.366C106.736 105.507 105.001 107.243 102.86 107.243C100.718 107.243 98.9831 105.507 98.9831 103.366C98.9831 101.225 100.718 99.4912 102.86 99.4912C105.001 99.4912 106.736 101.225 106.736 103.366Z" fill="#EDFCFF"/>
</g>
<g id="Group_31">
<path id="Vector_25" d="M100.031 114.103C100.031 114.957 99.3391 115.649 98.4841 115.649C97.6301 115.649 96.9381 114.957 96.9381 114.103C96.9381 113.249 97.6301 112.557 98.4841 112.557C99.3391 112.557 100.031 113.249 100.031 114.103Z" fill="#EDFCFF"/>
</g>
<g id="Group_32">
<path id="Vector_26" d="M94.6491 111.783C94.6491 112.21 94.3031 112.556 93.8761 112.556C93.4491 112.556 93.1031 112.21 93.1031 111.783C93.1031 111.356 93.4491 111.01 93.8761 111.01C94.3031 111.01 94.6491 111.356 94.6491 111.783Z" fill="#EDFCFF"/>
</g>
</g>
<g id="Group_33">
<g id="Group_34">
<path id="Vector_27" d="M96.0421 134.653C95.8731 136.316 94.4881 137.597 92.8241 137.758L69.8301 139.975C68.1671 140.136 66.5631 139.143 66.0781 137.544C65.8631 136.834 65.6971 136.1 65.5841 135.347C65.5531 135.138 65.6081 134.926 65.7381 134.76C65.8681 134.594 66.0601 134.49 66.2701 134.469L95.2791 131.671C95.4851 131.651 95.6911 131.717 95.8481 131.854C96.0051 131.99 96.0991 132.184 96.1071 132.392C96.1411 133.156 96.1181 133.911 96.0421 134.653Z" fill="#EDFCFF"/>
</g>
<g id="Group_35">
<path id="Vector_28" d="M92.8281 137.76L69.8291 139.973C68.2581 140.129 66.7521 139.258 66.1721 137.825C68.3401 144.529 74.9361 149.057 82.2381 148.351C89.6421 147.644 95.3091 141.783 96.0431 134.655C95.8691 136.318 94.4911 137.595 92.8281 137.76Z" fill="#D154C3"/>
</g>
</g>
</g>
</g>
</g>
<defs>
<linearGradient id="paint0_linear_1_3" x1="44.8376" y1="183.777" x2="-4.97606" y2="301.17" gradientUnits="userSpaceOnUse">
<stop stop-color="#4A90E2"/>
<stop offset="0.5" stop-color="#5CA1F1"/>
<stop offset="1" stop-color="#0F3654"/>
</linearGradient>
<linearGradient id="paint1_linear_1_3" x1="56.104" y1="245.437" x2="89.1039" y2="186.437" gradientUnits="userSpaceOnUse">
<stop stop-color="#5CA1F1"/>
<stop offset="0.5" stop-color="#4A90E2"/>
<stop offset="1" stop-color="#2237E7"/>
</linearGradient>
<linearGradient id="paint2_linear_1_3" x1="137.909" y1="241.999" x2="115.409" y2="168.499" gradientUnits="userSpaceOnUse">
<stop stop-color="#207CE7"/>
<stop offset="0.5" stop-color="#3A8DEE"/>
<stop offset="1" stop-color="#3C8BE7"/>
</linearGradient>
<linearGradient id="paint3_linear_1_3" x1="27.2931" y1="48.7112" x2="96.2931" y2="48.7112" gradientUnits="userSpaceOnUse">
<stop stop-color="#F1E0A4"/>
<stop offset="0.5" stop-color="#4A90E2"/>
<stop offset="1" stop-color="#5CA1F1"/>
</linearGradient>
<linearGradient id="paint4_linear_1_3" x1="62.2921" y1="8.47515" x2="85.0421" y2="8.47515" gradientUnits="userSpaceOnUse">
<stop stop-color="#F1E0A4"/>
<stop offset="0.5" stop-color="#4A90E2"/>
<stop offset="1" stop-color="#5CA1F1"/>
</linearGradient>
<linearGradient id="paint5_linear_1_3" x1="12.2931" y1="150.578" x2="145.793" y2="74.5781" gradientUnits="userSpaceOnUse">
<stop stop-color="#4A90E2"/>
<stop offset="0.5" stop-color="#5CA1F1"/>
<stop offset="1" stop-color="#2237E7"/>
</linearGradient>
<linearGradient id="paint6_linear_1_3" x1="77.7931" y1="111.15" x2="76.7931" y2="56.6502" gradientUnits="userSpaceOnUse">
<stop stop-color="#092739"/>
<stop offset="0.5" stop-color="#033570"/>
<stop offset="1" stop-color="#4A90E2"/>
</linearGradient>
<linearGradient id="paint7_linear_1_3" x1="53.5321" y1="120.078" x2="54.0321" y2="67.0781" gradientUnits="userSpaceOnUse">
<stop stop-color="#092739"/>
<stop offset="0.5" stop-color="#0C2E46"/>
<stop offset="1" stop-color="#0F3654"/>
</linearGradient>
<linearGradient id="paint8_linear_1_3" x1="100.532" y1="120.078" x2="101.032" y2="67.0782" gradientUnits="userSpaceOnUse">
<stop stop-color="#092739"/>
<stop offset="0.5" stop-color="#0C2E46"/>
<stop offset="1" stop-color="#0F3654"/>
</linearGradient>
</defs>
</svg>
