<svg xmlns="http://www.w3.org/2000/svg" xmlns:serif="http://www.serif.com/" xmlns:xlink="http://www.w3.org/1999/xlink" width="33px" height="33px" viewBox="-2.5 0 33 33" style="fill-rule:evenodd;clip-rule:evenodd;stroke-linejoin:round;stroke-miterlimit:2;" xml:space="preserve"><g transform="matrix(1,0,0,1,-43,-43)"><g id="whaleAlert-nft-investiment-sign-animal-warning-concept"><g transform="matrix(1,0,0,1,0,-9)"><rect height="1" width="1" x="63" y="84"/></g><g transform="matrix(1,0,0,1,0,-9)"><rect height="1" width="1" x="62" y="84"/></g><g transform="matrix(1,0,0,1,0,-9)"><rect height="1" width="1" x="61" y="84"/></g><g transform="matrix(1,0,0,1,0,-9)"><rect height="1" width="1" x="60" y="84"/></g><g transform="matrix(1,0,0,1,0,-9)"><rect height="1" width="1" x="55" y="84"/></g><g transform="matrix(1,0,0,1,0,-11.001)"><rect height="1.001" width="1" x="64" y="85"/></g><g transform="matrix(1,0,0,1,0,-11.001)"><rect height="1.001" style="fill:rgb(99,155,255);" width="1" x="63" y="85"/></g><g transform="matrix(1,0,0,1,0,-11.001)"><rect height="1.001" style="fill:rgb(99,155,255);" width="1" x="62" y="85"/></g><g transform="matrix(1,0,0,1,0,-11.001)"><rect height="1.001" style="fill:rgb(99,155,255);" width="1" x="61" y="85"/></g><g transform="matrix(1,0,0,1,0,-11.001)"><rect height="1.001" style="fill:rgb(99,155,255);" width="1" x="60" y="85"/></g><g transform="matrix(1,0,0,1,0,-11.001)"><rect height="1.001" width="1" x="59" y="85"/></g><g transform="matrix(1,0,0,1,0,-11.001)"><rect height="1.001" width="1" x="56" y="85"/></g><g transform="matrix(1,0,0,1,0,-11.001)"><rect height="1.001" style="fill:rgb(91,110,225);" width="1" x="55" y="85"/></g><g transform="matrix(1,0,0,1,0,-11.001)"><rect height="1.001" width="1" x="54" y="85"/></g><g transform="matrix(1,0,0,1,0,-13)"><rect height="1" width="1" x="64" y="86"/></g><g transform="matrix(1,0,0,1,0,-13)"><rect height="1" style="fill:rgb(91,110,225);" width="1" x="63" y="86"/></g><g transform="matrix(1,0,0,1,0,-13)"><rect height="1" style="fill:rgb(91,110,225);" width="1" x="62" y="86"/></g><g transform="matrix(1,0,0,1,0,-13)"><rect height="1" style="fill:rgb(91,110,225);" width="1" x="61" y="86"/></g><g transform="matrix(1,0,0,1,0,-13)"><rect height="1" style="fill:rgb(91,110,225);" width="1" x="60" y="86"/></g><g transform="matrix(1,0,0,1,0,-13)"><rect height="1" style="fill:rgb(99,155,255);" width="1" x="59" y="86"/></g><g transform="matrix(1,0,0,1,0,-13)"><rect height="1" width="1.001" x="58" y="86"/></g><g transform="matrix(1,0,0,1,0,-13)"><rect height="1" width="1" x="57" y="86"/></g><g transform="matrix(1,0,0,1,0,-13)"><rect height="1" style="fill:rgb(91,110,225);" width="1" x="56" y="86"/></g><g transform="matrix(1,0,0,1,0,-13)"><rect height="1" style="fill:rgb(91,110,225);" width="1" x="55" y="86"/></g><g transform="matrix(1,0,0,1,0,-13)"><rect height="1" style="fill:rgb(91,110,225);" width="1" x="54" y="86"/></g><g transform="matrix(1,0,0,1,0,-13)"><rect height="1" width="1" x="53" y="86"/></g><g transform="matrix(1,0,0,1,0,-15)"><rect height="1" width="1" x="63" y="87"/></g><g transform="matrix(1,0,0,1,0,-15)"><rect height="1" style="fill:rgb(91,110,225);" width="1" x="62" y="87"/></g><g transform="matrix(1,0,0,1,0,-15)"><rect height="1" style="fill:rgb(91,110,225);" width="1" x="61" y="87"/></g><g transform="matrix(1,0,0,1,0,-15)"><rect height="1" style="fill:rgb(91,110,225);" width="1" x="60" y="87"/></g><g transform="matrix(1,0,0,1,0,-15)"><rect height="1" style="fill:rgb(91,110,225);" width="1" x="59" y="87"/></g><g transform="matrix(1,0,0,1,0,-15)"><rect height="1" style="fill:rgb(99,155,255);" width="1.001" x="58" y="87"/></g><g transform="matrix(1,0,0,1,0,-15)"><rect height="1" width="1" x="57" y="87"/></g><g transform="matrix(1,0,0,1,0,-15)"><rect height="1" style="fill:rgb(91,110,225);" width="1" x="56" y="87"/></g><g transform="matrix(1,0,0,1,0,-15)"><rect height="1" style="fill:rgb(91,110,225);" width="1" x="55" y="87"/></g><g transform="matrix(1,0,0,1,0,-15)"><rect height="1" style="fill:rgb(91,110,225);" width="1" x="54" y="87"/></g><g transform="matrix(1,0,0,1,0,-15)"><rect height="1" style="fill:rgb(91,110,225);" width="1" x="53" y="87"/></g><g transform="matrix(1,0,0,1,0,-15)"><rect height="1" width="1" x="52" y="87"/></g><g transform="matrix(1,0,0,1,0,-17)"><rect height="1" width="1" x="62" y="88"/></g><g transform="matrix(1,0,0,1,0,-17)"><rect height="1" style="fill:rgb(91,110,225);" width="1" x="61" y="88"/></g><g transform="matrix(1,0,0,1,0,-17)"><rect height="1" style="fill:rgb(91,110,225);" width="1" x="60" y="88"/></g><g transform="matrix(1,0,0,1,0,-17)"><rect height="1" style="fill:rgb(91,110,225);" width="1" x="59" y="88"/></g><g transform="matrix(1,0,0,1,0,-17)"><rect height="1" style="fill:rgb(99,155,255);" width="1.001" x="58" y="88"/></g><g transform="matrix(1,0,0,1,0,-17)"><rect height="1" width="1" x="57" y="88"/></g><g transform="matrix(1,0,0,1,0,-17)"><rect height="1" width="1" x="56" y="88"/></g><g transform="matrix(1,0,0,1,0,-17)"><rect height="1" style="fill:rgb(91,110,225);" width="1" x="55" y="88"/></g><g transform="matrix(1,0,0,1,0,-17)"><rect height="1" style="fill:rgb(91,110,225);" width="1" x="54" y="88"/></g><g transform="matrix(1,0,0,1,0,-17)"><rect height="1" style="fill:rgb(91,110,225);" width="1" x="53" y="88"/></g><g transform="matrix(1,0,0,1,0,-17)"><rect height="1" width="1" x="52" y="88"/></g><g transform="matrix(1,0,0,1,0,-19)"><rect height="1" width="1" x="65" y="89"/></g><g transform="matrix(1,0,0,1,0,-19)"><rect height="1" width="1" x="64" y="89"/></g><g transform="matrix(1,0,0,1,0,-19)"><rect height="1" width="1" x="63" y="89"/></g><g transform="matrix(1,0,0,1,0,-19)"><rect height="1" style="fill:rgb(203,219,252);" width="1" x="62" y="89"/></g><g transform="matrix(1,0,0,1,0,-19)"><rect height="1" width="1" x="61" y="89"/></g><g transform="matrix(1,0,0,1,0,-19)"><rect height="1" style="fill:rgb(91,110,225);" width="1" x="60" y="89"/></g><g transform="matrix(1,0,0,1,0,-19)"><rect height="1" style="fill:rgb(91,110,225);" width="1" x="59" y="89"/></g><g transform="matrix(1,0,0,1,0,-19)"><rect height="1" style="fill:rgb(99,155,255);" width="1.001" x="58" y="89"/></g><g transform="matrix(1,0,0,1,0,-19)"><rect height="1" width="1" x="57" y="89"/></g><g transform="matrix(1,0,0,1,0,-19)"><rect height="1" style="fill:rgb(203,219,252);" width="1" x="56" y="89"/></g><g transform="matrix(1,0,0,1,0,-19)"><rect height="1" width="1" x="55" y="89"/></g><g transform="matrix(1,0,0,1,0,-19)"><rect height="1" width="1" x="54" y="89"/></g><g transform="matrix(1,0,0,1,0,-19)"><rect height="1" style="fill:rgb(91,110,225);" width="1" x="53" y="89"/></g><g transform="matrix(1,0,0,1,0,-19)"><rect height="1" width="1" x="52" y="89"/></g><g transform="matrix(1,0,0,1,0,-21)"><rect height="1" width="1.001" x="67" y="90"/></g><g transform="matrix(1,0,0,1,0,-21)"><rect height="1" width="1" x="66" y="90"/></g><g transform="matrix(1,0,0,1,0,-21)"><rect height="1" style="fill:rgb(91,110,225);" width="1" x="65" y="90"/></g><g transform="matrix(1,0,0,1,0,-21)"><rect height="1" style="fill:rgb(91,110,225);" width="1" x="64" y="90"/></g><g transform="matrix(1,0,0,1,0,-21)"><rect height="1" style="fill:rgb(91,110,225);" width="1" x="63" y="90"/></g><g transform="matrix(1,0,0,1,0,-21)"><rect height="1" style="fill:rgb(91,110,225);" width="1" x="62" y="90"/></g><g transform="matrix(1,0,0,1,0,-21)"><rect height="1" style="fill:rgb(91,110,225);" width="1" x="61" y="90"/></g><g transform="matrix(1,0,0,1,0,-21)"><rect height="1" width="1" x="60" y="90"/></g><g transform="matrix(1,0,0,1,0,-21)"><rect height="1" style="fill:rgb(91,110,225);" width="1" x="59" y="90"/></g><g transform="matrix(1,0,0,1,0,-21)"><rect height="1" style="fill:rgb(99,155,255);" width="1.001" x="58" y="90"/></g><g transform="matrix(1,0,0,1,0,-21)"><rect height="1" width="1" x="57" y="90"/></g><g transform="matrix(1,0,0,1,0,-21)"><rect height="1" style="fill:rgb(203,219,252);" width="1" x="56" y="90"/></g><g transform="matrix(1,0,0,1,0,-21)"><rect height="1" style="fill:rgb(203,219,252);" width="1" x="55" y="90"/></g><g transform="matrix(1,0,0,1,0,-21)"><rect height="1" style="fill:rgb(203,219,252);" width="1" x="54" y="90"/></g><g transform="matrix(1,0,0,1,0,-21)"><rect height="1" width="1" x="53" y="90"/></g><g transform="matrix(1,0,0,1,0,-21)"><rect height="1" width="1" x="52" y="90"/></g><g transform="matrix(1,0,0,1,0,-23)"><rect height="1" width="1" x="68" y="91"/></g><g transform="matrix(1,0,0,1,0,-23)"><rect height="1" style="fill:rgb(91,110,225);" width="1.001" x="67" y="91"/></g><g transform="matrix(1,0,0,1,0,-23)"><rect height="1" style="fill:rgb(91,110,225);" width="1" x="66" y="91"/></g><g transform="matrix(1,0,0,1,0,-23)"><rect height="1" style="fill:rgb(91,110,225);" width="1" x="65" y="91"/></g><g transform="matrix(1,0,0,1,0,-23)"><rect height="1" style="fill:rgb(91,110,225);" width="1" x="64" y="91"/></g><g transform="matrix(1,0,0,1,0,-23)"><rect height="1" style="fill:rgb(91,110,225);" width="1" x="63" y="91"/></g><g transform="matrix(1,0,0,1,0,-23)"><rect height="1" style="fill:rgb(91,110,225);" width="1" x="62" y="91"/></g><g transform="matrix(1,0,0,1,0,-23)"><rect height="1" style="fill:rgb(91,110,225);" width="1" x="61" y="91"/></g><g transform="matrix(1,0,0,1,0,-23)"><rect height="1" width="1" x="60" y="91"/></g><g transform="matrix(1,0,0,1,0,-23)"><rect height="1" style="fill:rgb(91,110,225);" width="1" x="59" y="91"/></g><g transform="matrix(1,0,0,1,0,-23)"><rect height="1" style="fill:rgb(91,110,225);" width="1.001" x="58" y="91"/></g><g transform="matrix(1,0,0,1,0,-23)"><rect height="1" style="fill:rgb(99,155,255);" width="1" x="57" y="91"/></g><g transform="matrix(1,0,0,1,0,-23)"><rect height="1" style="fill:rgb(91,110,225);" width="1" x="56" y="91"/></g><g transform="matrix(1,0,0,1,0,-23)"><rect height="1" style="fill:rgb(91,110,225);" width="1" x="55" y="91"/></g><g transform="matrix(1,0,0,1,0,-23)"><rect height="1" style="fill:rgb(203,219,252);" width="1" x="54" y="91"/></g><g transform="matrix(1,0,0,1,0,-23)"><rect height="1" style="fill:rgb(203,219,252);" width="1" x="53" y="91"/></g><g transform="matrix(1,0,0,1,0,-23)"><rect height="1" style="fill:rgb(203,219,252);" width="1" x="52" y="91"/></g><g transform="matrix(1,0,0,1,0,-23)"><rect height="1" width="1" x="51" y="91"/></g><g transform="matrix(1,0,0,1,0,-23)"><rect height="1" width="1" x="50" y="91"/></g><g transform="matrix(1,0,0,1,0,-25)"><rect height="1" width="1" x="68" y="92"/></g><g transform="matrix(1,0,0,1,0,-25)"><rect height="1" style="fill:rgb(91,110,225);" width="1.001" x="67" y="92"/></g><g transform="matrix(1,0,0,1,0,-25)"><rect height="1" style="fill:rgb(91,110,225);" width="1" x="66" y="92"/></g><g transform="matrix(1,0,0,1,0,-25)"><rect height="1" style="fill:rgb(91,110,225);" width="1" x="65" y="92"/></g><g transform="matrix(1,0,0,1,0,-25)"><rect height="1" style="fill:rgb(91,110,225);" width="1" x="64" y="92"/></g><g transform="matrix(1,0,0,1,0,-25)"><rect height="1" style="fill:rgb(91,110,225);" width="1" x="63" y="92"/></g><g transform="matrix(1,0,0,1,0,-25)"><rect height="1" style="fill:rgb(91,110,225);" width="1" x="62" y="92"/></g><g transform="matrix(1,0,0,1,0,-25)"><rect height="1" style="fill:rgb(91,110,225);" width="1" x="61" y="92"/></g><g transform="matrix(1,0,0,1,0,-25)"><rect height="1" style="fill:rgb(91,110,225);" width="1" x="60" y="92"/></g><g transform="matrix(1,0,0,1,0,-25)"><rect height="1" style="fill:rgb(91,110,225);" width="1" x="59" y="92"/></g><g transform="matrix(1,0,0,1,0,-25)"><rect height="1" style="fill:rgb(91,110,225);" width="1.001" x="58" y="92"/></g><g transform="matrix(1,0,0,1,0,-25)"><rect height="1" style="fill:rgb(91,110,225);" width="1" x="57" y="92"/></g><g transform="matrix(1,0,0,1,0,-25)"><rect height="1" style="fill:rgb(91,110,225);" width="1" x="56" y="92"/></g><g transform="matrix(1,0,0,1,0,-25)"><rect height="1" style="fill:rgb(91,110,225);" width="1" x="55" y="92"/></g><g transform="matrix(1,0,0,1,0,-25)"><rect height="1" style="fill:rgb(91,110,225);" width="1" x="54" y="92"/></g><g transform="matrix(1,0,0,1,0,-25)"><rect height="1" style="fill:rgb(91,110,225);" width="1" x="53" y="92"/></g><g transform="matrix(1,0,0,1,0,-25)"><rect height="1" style="fill:rgb(203,219,252);" width="1" x="52" y="92"/></g><g transform="matrix(1,0,0,1,0,-25)"><rect height="1" style="fill:rgb(203,219,252);" width="1" x="51" y="92"/></g><g transform="matrix(1,0,0,1,0,-25)"><rect height="1" style="fill:rgb(203,219,252);" width="1" x="50" y="92"/></g><g transform="matrix(1,0,0,1,0,-25)"><rect height="1" width="1.001" x="49" y="92"/></g><g transform="matrix(1,0,0,1,0,-25)"><rect height="1" width="1" x="48" y="92"/></g><g transform="matrix(1,0,0,1,0,-27)"><rect height="1" width="1" x="69" y="93"/></g><g transform="matrix(1,0,0,1,0,-27)"><rect height="1" style="fill:rgb(91,110,225);" width="1" x="68" y="93"/></g><g transform="matrix(1,0,0,1,0,-27)"><rect height="1" style="fill:rgb(91,110,225);" width="1.001" x="67" y="93"/></g><g transform="matrix(1,0,0,1,0,-27)"><rect height="1" style="fill:rgb(91,110,225);" width="1" x="66" y="93"/></g><g transform="matrix(1,0,0,1,0,-27)"><rect height="1" style="fill:rgb(99,155,255);" width="1" x="65" y="93"/></g><g transform="matrix(1,0,0,1,0,-27)"><rect height="1" style="fill:rgb(99,155,255);" width="1" x="64" y="93"/></g><g transform="matrix(1,0,0,1,0,-27)"><rect height="1" style="fill:rgb(91,110,225);" width="1" x="63" y="93"/></g><g transform="matrix(1,0,0,1,0,-27)"><rect height="1" style="fill:rgb(91,110,225);" width="1" x="62" y="93"/></g><g transform="matrix(1,0,0,1,0,-27)"><rect height="1" style="fill:rgb(91,110,225);" width="1" x="61" y="93"/></g><g transform="matrix(1,0,0,1,0,-27)"><rect height="1" style="fill:rgb(91,110,225);" width="1" x="60" y="93"/></g><g transform="matrix(1,0,0,1,0,-27)"><rect height="1" style="fill:rgb(91,110,225);" width="1" x="59" y="93"/></g><g transform="matrix(1,0,0,1,0,-27)"><rect height="1" style="fill:rgb(91,110,225);" width="1.001" x="58" y="93"/></g><g transform="matrix(1,0,0,1,0,-27)"><rect height="1" style="fill:rgb(91,110,225);" width="1" x="57" y="93"/></g><g transform="matrix(1,0,0,1,0,-27)"><rect height="1" style="fill:rgb(91,110,225);" width="1" x="56" y="93"/></g><g transform="matrix(1,0,0,1,0,-27)"><rect height="1" style="fill:rgb(91,110,225);" width="1" x="55" y="93"/></g><g transform="matrix(1,0,0,1,0,-27)"><rect height="1" style="fill:rgb(91,110,225);" width="1" x="54" y="93"/></g><g transform="matrix(1,0,0,1,0,-27)"><rect height="1" style="fill:rgb(91,110,225);" width="1" x="53" y="93"/></g><g transform="matrix(1,0,0,1,0,-27)"><rect height="1" width="1" x="52" y="93"/></g><g transform="matrix(1,0,0,1,0,-27)"><rect height="1" style="fill:rgb(203,219,252);" width="1" x="51" y="93"/></g><g transform="matrix(1,0,0,1,0,-27)"><rect height="1" style="fill:rgb(203,219,252);" width="1" x="50" y="93"/></g><g transform="matrix(1,0,0,1,0,-27)"><rect height="1" style="fill:rgb(203,219,252);" width="1.001" x="49" y="93"/></g><g transform="matrix(1,0,0,1,0,-27)"><rect height="1" style="fill:rgb(203,219,252);" width="1" x="48" y="93"/></g><g transform="matrix(1,0,0,1,0,-27)"><rect height="1" width="1" x="47" y="93"/></g><g transform="matrix(1,0,0,1,0,-27)"><rect height="1" width="1" x="46" y="93"/></g><g transform="matrix(1,0,0,1,0,-29.001)"><rect height="1.001" width="1" x="69" y="94"/></g><g transform="matrix(1,0,0,1,0,-29.001)"><rect height="1.001" style="fill:rgb(91,110,225);" width="1" x="68" y="94"/></g><g transform="matrix(1,0,0,1,0,-29.001)"><rect height="1.001" style="fill:rgb(91,110,225);" width="1.001" x="67" y="94"/></g><g transform="matrix(1,0,0,1,0,-29.001)"><rect height="1.001" style="fill:rgb(99,155,255);" width="1" x="66" y="94"/></g><g transform="matrix(1,0,0,1,0,-29.001)"><rect height="1.001" width="1" x="65" y="94"/></g><g transform="matrix(1,0,0,1,0,-29.001)"><rect height="1.001" width="1" x="64" y="94"/></g><g transform="matrix(1,0,0,1,0,-29.001)"><rect height="1.001" style="fill:rgb(99,155,255);" width="1" x="63" y="94"/></g><g transform="matrix(1,0,0,1,0,-29.001)"><rect height="1.001" style="fill:rgb(91,110,225);" width="1" x="62" y="94"/></g><g transform="matrix(1,0,0,1,0,-29.001)"><rect height="1.001" style="fill:rgb(91,110,225);" width="1" x="61" y="94"/></g><g transform="matrix(1,0,0,1,0,-29.001)"><rect height="1.001" style="fill:rgb(91,110,225);" width="1" x="60" y="94"/></g><g transform="matrix(1,0,0,1,0,-29.001)"><rect height="1.001" style="fill:rgb(91,110,225);" width="1" x="59" y="94"/></g><g transform="matrix(1,0,0,1,0,-29.001)"><rect height="1.001" style="fill:rgb(91,110,225);" width="1.001" x="58" y="94"/></g><g transform="matrix(1,0,0,1,0,-29.001)"><rect height="1.001" style="fill:rgb(91,110,225);" width="1" x="57" y="94"/></g><g transform="matrix(1,0,0,1,0,-29.001)"><rect height="1.001" style="fill:rgb(91,110,225);" width="1" x="56" y="94"/></g><g transform="matrix(1,0,0,1,0,-29.001)"><rect height="1.001" style="fill:rgb(91,110,225);" width="1" x="55" y="94"/></g><g transform="matrix(1,0,0,1,0,-29.001)"><rect height="1.001" style="fill:rgb(91,110,225);" width="1" x="54" y="94"/></g><g transform="matrix(1,0,0,1,0,-29.001)"><rect height="1.001" style="fill:rgb(91,110,225);" width="1" x="53" y="94"/></g><g transform="matrix(1,0,0,1,0,-29.001)"><rect height="1.001" style="fill:rgb(91,110,225);" width="1" x="52" y="94"/></g><g transform="matrix(1,0,0,1,0,-29.001)"><rect height="1.001" width="1" x="51" y="94"/></g><g transform="matrix(1,0,0,1,0,-29.001)"><rect height="1.001" width="1" x="50" y="94"/></g><g transform="matrix(1,0,0,1,0,-29.001)"><rect height="1.001" style="fill:rgb(203,219,252);" width="1.001" x="49" y="94"/></g><g transform="matrix(1,0,0,1,0,-29.001)"><rect height="1.001" style="fill:rgb(203,219,252);" width="1" x="48" y="94"/></g><g transform="matrix(1,0,0,1,0,-29.001)"><rect height="1.001" style="fill:rgb(203,219,252);" width="1" x="47" y="94"/></g><g transform="matrix(1,0,0,1,0,-29.001)"><rect height="1.001" style="fill:rgb(203,219,252);" width="1" x="46" y="94"/></g><g transform="matrix(1,0,0,1,0,-29.001)"><rect height="1.001" width="1" x="45" y="94"/></g><g transform="matrix(1,0,0,1,0,-29.001)"><rect height="1.001" width="1" x="44" y="94"/></g><g transform="matrix(1,0,0,1,0,-31)"><rect height="1" width="1" x="69" y="95"/></g><g transform="matrix(1,0,0,1,0,-31)"><rect height="1" style="fill:rgb(91,110,225);" width="1" x="68" y="95"/></g><g transform="matrix(1,0,0,1,0,-31)"><rect height="1" style="fill:rgb(91,110,225);" width="1.001" x="67" y="95"/></g><g transform="matrix(1,0,0,1,0,-31)"><rect height="1" width="1" x="66" y="95"/></g><g transform="matrix(1,0,0,1,0,-31)"><rect height="1" width="1" x="63" y="95"/></g><g transform="matrix(1,0,0,1,0,-31)"><rect height="1" style="fill:rgb(99,155,255);" width="1" x="62" y="95"/></g><g transform="matrix(1,0,0,1,0,-31)"><rect height="1" style="fill:rgb(91,110,225);" width="1" x="61" y="95"/></g><g transform="matrix(1,0,0,1,0,-31)"><rect height="1" style="fill:rgb(91,110,225);" width="1" x="60" y="95"/></g><g transform="matrix(1,0,0,1,0,-31)"><rect height="1" style="fill:rgb(91,110,225);" width="1" x="59" y="95"/></g><g transform="matrix(1,0,0,1,0,-31)"><rect height="1" style="fill:rgb(91,110,225);" width="1.001" x="58" y="95"/></g><g transform="matrix(1,0,0,1,0,-31)"><rect height="1" style="fill:rgb(91,110,225);" width="1" x="57" y="95"/></g><g transform="matrix(1,0,0,1,0,-31)"><rect height="1" style="fill:rgb(91,110,225);" width="1" x="56" y="95"/></g><g transform="matrix(1,0,0,1,0,-31)"><rect height="1" style="fill:rgb(91,110,225);" width="1" x="55" y="95"/></g><g transform="matrix(1,0,0,1,0,-31)"><rect height="1" width="1" x="54" y="95"/></g><g transform="matrix(1,0,0,1,0,-31)"><rect height="1" style="fill:rgb(91,110,225);" width="1" x="53" y="95"/></g><g transform="matrix(1,0,0,1,0,-31)"><rect height="1" style="fill:rgb(91,110,225);" width="1" x="52" y="95"/></g><g transform="matrix(1,0,0,1,0,-31)"><rect height="1" style="fill:rgb(91,110,225);" width="1" x="51" y="95"/></g><g transform="matrix(1,0,0,1,0,-31)"><rect height="1" style="fill:rgb(91,110,225);" width="1" x="50" y="95"/></g><g transform="matrix(1,0,0,1,0,-31)"><rect height="1" width="1.001" x="49" y="95"/></g><g transform="matrix(1,0,0,1,0,-31)"><rect height="1" width="1" x="48" y="95"/></g><g transform="matrix(1,0,0,1,0,-31)"><rect height="1" style="fill:rgb(203,219,252);" width="1" x="47" y="95"/></g><g transform="matrix(1,0,0,1,0,-31)"><rect height="1" style="fill:rgb(203,219,252);" width="1" x="46" y="95"/></g><g transform="matrix(1,0,0,1,0,-31)"><rect height="1" style="fill:rgb(203,219,252);" width="1" x="45" y="95"/></g><g transform="matrix(1,0,0,1,0,-31)"><rect height="1" style="fill:rgb(203,219,252);" width="1" x="44" y="95"/></g><g transform="matrix(1,0,0,1,0,-31)"><rect height="1" width="1" x="43" y="95"/></g><g transform="matrix(1,0,0,1,0,-33)"><rect height="1" width="1" x="69" y="96"/></g><g transform="matrix(1,0,0,1,0,-33)"><rect height="1" style="fill:rgb(91,110,225);" width="1" x="68" y="96"/></g><g transform="matrix(1,0,0,1,0,-33)"><rect height="1" style="fill:rgb(91,110,225);" width="1.001" x="67" y="96"/></g><g transform="matrix(1,0,0,1,0,-33)"><rect height="1" width="1" x="66" y="96"/></g><g transform="matrix(1,0,0,1,0,-33)"><rect height="1" width="1" x="62" y="96"/></g><g transform="matrix(1,0,0,1,0,-33)"><rect height="1" style="fill:rgb(99,155,255);" width="1" x="61" y="96"/></g><g transform="matrix(1,0,0,1,0,-33)"><rect height="1" style="fill:rgb(91,110,225);" width="1" x="60" y="96"/></g><g transform="matrix(1,0,0,1,0,-33)"><rect height="1" style="fill:rgb(91,110,225);" width="1" x="59" y="96"/></g><g transform="matrix(1,0,0,1,0,-33)"><rect height="1" style="fill:rgb(91,110,225);" width="1.001" x="58" y="96"/></g><g transform="matrix(1,0,0,1,0,-33)"><rect height="1" style="fill:rgb(91,110,225);" width="1" x="57" y="96"/></g><g transform="matrix(1,0,0,1,0,-33)"><rect height="1" style="fill:rgb(91,110,225);" width="1" x="56" y="96"/></g><g transform="matrix(1,0,0,1,0,-33)"><rect height="1" style="fill:rgb(91,110,225);" width="1" x="55" y="96"/></g><g transform="matrix(1,0,0,1,0,-33)"><rect height="1" style="fill:rgb(91,110,225);" width="1" x="54" y="96"/></g><g transform="matrix(1,0,0,1,0,-33)"><rect height="1" style="fill:rgb(91,110,225);" width="1" x="53" y="96"/></g><g transform="matrix(1,0,0,1,0,-33)"><rect height="1" style="fill:rgb(91,110,225);" width="1" x="52" y="96"/></g><g transform="matrix(1,0,0,1,0,-33)"><rect height="1" style="fill:rgb(91,110,225);" width="1" x="51" y="96"/></g><g transform="matrix(1,0,0,1,0,-33)"><rect height="1" style="fill:rgb(91,110,225);" width="1" x="50" y="96"/></g><g transform="matrix(1,0,0,1,0,-33)"><rect height="1" style="fill:rgb(91,110,225);" width="1.001" x="49" y="96"/></g><g transform="matrix(1,0,0,1,0,-33)"><rect height="1" style="fill:rgb(91,110,225);" width="1" x="48" y="96"/></g><g transform="matrix(1,0,0,1,0,-33)"><rect height="1" width="1" x="47" y="96"/></g><g transform="matrix(1,0,0,1,0,-33)"><rect height="1" width="1" x="46" y="96"/></g><g transform="matrix(1,0,0,1,0,-33)"><rect height="1" width="1" x="45" y="96"/></g><g transform="matrix(1,0,0,1,0,-33)"><rect height="1" width="1" x="44" y="96"/></g><g transform="matrix(1,0,0,1,0,-35)"><rect height="1" width="1" x="69" y="97"/></g><g transform="matrix(1,0,0,1,0,-35)"><rect height="1" style="fill:rgb(91,110,225);" width="1" x="68" y="97"/></g><g transform="matrix(1,0,0,1,0,-35)"><rect height="1" style="fill:rgb(91,110,225);" width="1.001" x="67" y="97"/></g><g transform="matrix(1,0,0,1,0,-35)"><rect height="1" width="1" x="66" y="97"/></g><g transform="matrix(1,0,0,1,0,-35)"><rect height="1" width="1" x="61" y="97"/></g><g transform="matrix(1,0,0,1,0,-35)"><rect height="1" style="fill:rgb(99,155,255);" width="1" x="60" y="97"/></g><g transform="matrix(1,0,0,1,0,-35)"><rect height="1" style="fill:rgb(91,110,225);" width="1" x="59" y="97"/></g><g transform="matrix(1,0,0,1,0,-35)"><rect height="1" style="fill:rgb(91,110,225);" width="1.001" x="58" y="97"/></g><g transform="matrix(1,0,0,1,0,-35)"><rect height="1" style="fill:rgb(91,110,225);" width="1" x="57" y="97"/></g><g transform="matrix(1,0,0,1,0,-35)"><rect height="1" style="fill:rgb(91,110,225);" width="1" x="56" y="97"/></g><g transform="matrix(1,0,0,1,0,-35)"><rect height="1" style="fill:rgb(91,110,225);" width="1" x="55" y="97"/></g><g transform="matrix(1,0,0,1,0,-35)"><rect height="1" style="fill:rgb(91,110,225);" width="1" x="54" y="97"/></g><g transform="matrix(1,0,0,1,0,-35)"><rect height="1" style="fill:rgb(91,110,225);" width="1" x="53" y="97"/></g><g transform="matrix(1,0,0,1,0,-35)"><rect height="1" style="fill:rgb(91,110,225);" width="1" x="52" y="97"/></g><g transform="matrix(1,0,0,1,0,-35)"><rect height="1" style="fill:rgb(91,110,225);" width="1" x="51" y="97"/></g><g transform="matrix(1,0,0,1,0,-35)"><rect height="1" style="fill:rgb(91,110,225);" width="1" x="50" y="97"/></g><g transform="matrix(1,0,0,1,0,-35)"><rect height="1" style="fill:rgb(91,110,225);" width="1.001" x="49" y="97"/></g><g transform="matrix(1,0,0,1,0,-35)"><rect height="1" style="fill:rgb(91,110,225);" width="1" x="48" y="97"/></g><g transform="matrix(1,0,0,1,0,-35)"><rect height="1" style="fill:rgb(91,110,225);" width="1" x="47" y="97"/></g><g transform="matrix(1,0,0,1,0,-35)"><rect height="1" style="fill:rgb(91,110,225);" width="1" x="46" y="97"/></g><g transform="matrix(1,0,0,1,0,-35)"><rect height="1" style="fill:rgb(91,110,225);" width="1" x="45" y="97"/></g><g transform="matrix(1,0,0,1,0,-35)"><rect height="1" style="fill:rgb(91,110,225);" width="1" x="44" y="97"/></g><g transform="matrix(1,0,0,1,0,-35)"><rect height="1" width="1" x="43" y="97"/></g><g transform="matrix(1,0,0,1,0,-37)"><rect height="1" width="1" x="68" y="98"/></g><g transform="matrix(1,0,0,1,0,-37)"><rect height="1" style="fill:rgb(91,110,225);" width="1.001" x="67" y="98"/></g><g transform="matrix(1,0,0,1,0,-37)"><rect height="1" style="fill:rgb(91,110,225);" width="1" x="66" y="98"/></g><g transform="matrix(1,0,0,1,0,-37)"><rect height="1" width="1" x="65" y="98"/></g><g transform="matrix(1,0,0,1,0,-37)"><rect height="1" width="1" x="60" y="98"/></g><g transform="matrix(1,0,0,1,0,-37)"><rect height="1" style="fill:rgb(99,155,255);" width="1" x="59" y="98"/></g><g transform="matrix(1,0,0,1,0,-37)"><rect height="1" style="fill:rgb(91,110,225);" width="1.001" x="58" y="98"/></g><g transform="matrix(1,0,0,1,0,-37)"><rect height="1" style="fill:rgb(91,110,225);" width="1" x="57" y="98"/></g><g transform="matrix(1,0,0,1,0,-37)"><rect height="1" style="fill:rgb(91,110,225);" width="1" x="56" y="98"/></g><g transform="matrix(1,0,0,1,0,-37)"><rect height="1" style="fill:rgb(91,110,225);" width="1" x="55" y="98"/></g><g transform="matrix(1,0,0,1,0,-37)"><rect height="1" style="fill:rgb(91,110,225);" width="1" x="54" y="98"/></g><g transform="matrix(1,0,0,1,0,-37)"><rect height="1" style="fill:rgb(91,110,225);" width="1" x="53" y="98"/></g><g transform="matrix(1,0,0,1,0,-37)"><rect height="1" style="fill:rgb(91,110,225);" width="1" x="52" y="98"/></g><g transform="matrix(1,0,0,1,0,-37)"><rect height="1" style="fill:rgb(91,110,225);" width="1" x="51" y="98"/></g><g transform="matrix(1,0,0,1,0,-37)"><rect height="1" style="fill:rgb(91,110,225);" width="1" x="50" y="98"/></g><g transform="matrix(1,0,0,1,0,-37)"><rect height="1" style="fill:rgb(91,110,225);" width="1.001" x="49" y="98"/></g><g transform="matrix(1,0,0,1,0,-37)"><rect height="1" style="fill:rgb(91,110,225);" width="1" x="48" y="98"/></g><g transform="matrix(1,0,0,1,0,-37)"><rect height="1" style="fill:rgb(91,110,225);" width="1" x="47" y="98"/></g><g transform="matrix(1,0,0,1,0,-37)"><rect height="1" style="fill:rgb(91,110,225);" width="1" x="46" y="98"/></g><g transform="matrix(1,0,0,1,0,-37)"><rect height="1" style="fill:rgb(91,110,225);" width="1" x="45" y="98"/></g><g transform="matrix(1,0,0,1,0,-37)"><rect height="1" style="fill:rgb(91,110,225);" width="1" x="44" y="98"/></g><g transform="matrix(1,0,0,1,0,-37)"><rect height="1" width="1" x="43" y="98"/></g><g transform="matrix(1,0,0,1,0,-39)"><rect height="1" width="1" x="68" y="99"/></g><g transform="matrix(1,0,0,1,0,-39)"><rect height="1" style="fill:rgb(91,110,225);" width="1.001" x="67" y="99"/></g><g transform="matrix(1,0,0,1,0,-39)"><rect height="1" style="fill:rgb(99,155,255);" width="1" x="66" y="99"/></g><g transform="matrix(1,0,0,1,0,-39)"><rect height="1" style="fill:rgb(99,155,255);" width="1" x="65" y="99"/></g><g transform="matrix(1,0,0,1,0,-39)"><rect height="1" width="1" x="64" y="99"/></g><g transform="matrix(1,0,0,1,0,-39)"><rect height="1" width="1" x="59" y="99"/></g><g transform="matrix(1,0,0,1,0,-39)"><rect height="1" style="fill:rgb(99,155,255);" width="1.001" x="58" y="99"/></g><g transform="matrix(1,0,0,1,0,-39)"><rect height="1" style="fill:rgb(91,110,225);" width="1" x="57" y="99"/></g><g transform="matrix(1,0,0,1,0,-39)"><rect height="1" style="fill:rgb(91,110,225);" width="1" x="56" y="99"/></g><g transform="matrix(1,0,0,1,0,-39)"><rect height="1" style="fill:rgb(91,110,225);" width="1" x="55" y="99"/></g><g transform="matrix(1,0,0,1,0,-39)"><rect height="1" style="fill:rgb(91,110,225);" width="1" x="54" y="99"/></g><g transform="matrix(1,0,0,1,0,-39)"><rect height="1" style="fill:rgb(91,110,225);" width="1" x="53" y="99"/></g><g transform="matrix(1,0,0,1,0,-39)"><rect height="1" style="fill:rgb(91,110,225);" width="1" x="52" y="99"/></g><g transform="matrix(1,0,0,1,0,-39)"><rect height="1" style="fill:rgb(91,110,225);" width="1" x="51" y="99"/></g><g transform="matrix(1,0,0,1,0,-39)"><rect height="1" style="fill:rgb(91,110,225);" width="1" x="50" y="99"/></g><g transform="matrix(1,0,0,1,0,-39)"><rect height="1" style="fill:rgb(91,110,225);" width="1.001" x="49" y="99"/></g><g transform="matrix(1,0,0,1,0,-39)"><rect height="1" style="fill:rgb(91,110,225);" width="1" x="48" y="99"/></g><g transform="matrix(1,0,0,1,0,-39)"><rect height="1" style="fill:rgb(91,110,225);" width="1" x="47" y="99"/></g><g transform="matrix(1,0,0,1,0,-39)"><rect height="1" style="fill:rgb(91,110,225);" width="1" x="46" y="99"/></g><g transform="matrix(1,0,0,1,0,-39)"><rect height="1" style="fill:rgb(91,110,225);" width="1" x="45" y="99"/></g><g transform="matrix(1,0,0,1,0,-39)"><rect height="1" style="fill:rgb(91,110,225);" width="1" x="44" y="99"/></g><g transform="matrix(1,0,0,1,0,-39)"><rect height="1" width="1" x="43" y="99"/></g><g transform="matrix(1,0,0,1,0,-41)"><rect height="1" width="1" x="69" y="100"/></g><g transform="matrix(1,0,0,1,0,-41)"><rect height="1" style="fill:rgb(91,110,225);" width="1" x="68" y="100"/></g><g transform="matrix(1,0,0,1,0,-41)"><rect height="1" style="fill:rgb(99,155,255);" width="1.001" x="67" y="100"/></g><g transform="matrix(1,0,0,1,0,-41)"><rect height="1" width="1" x="66" y="100"/></g><g transform="matrix(1,0,0,1,0,-41)"><rect height="1" style="fill:rgb(99,155,255);" width="1" x="65" y="100"/></g><g transform="matrix(1,0,0,1,0,-41)"><rect height="1" style="fill:rgb(99,155,255);" width="1" x="64" y="100"/></g><g transform="matrix(1,0,0,1,0,-41)"><rect height="1" width="1" x="63" y="100"/></g><g transform="matrix(1,0,0,1,0,-41)"><rect height="1" width="1.001" x="58" y="100"/></g><g transform="matrix(1,0,0,1,0,-41)"><rect height="1" style="fill:rgb(99,155,255);" width="1" x="57" y="100"/></g><g transform="matrix(1,0,0,1,0,-41)"><rect height="1" style="fill:rgb(91,110,225);" width="1" x="56" y="100"/></g><g transform="matrix(1,0,0,1,0,-41)"><rect height="1" style="fill:rgb(91,110,225);" width="1" x="55" y="100"/></g><g transform="matrix(1,0,0,1,0,-41)"><rect height="1" style="fill:rgb(91,110,225);" width="1" x="54" y="100"/></g><g transform="matrix(1,0,0,1,0,-41)"><rect height="1" style="fill:rgb(91,110,225);" width="1" x="53" y="100"/></g><g transform="matrix(1,0,0,1,0,-41)"><rect height="1" style="fill:rgb(91,110,225);" width="1" x="52" y="100"/></g><g transform="matrix(1,0,0,1,0,-41)"><rect height="1" style="fill:rgb(91,110,225);" width="1" x="51" y="100"/></g><g transform="matrix(1,0,0,1,0,-41)"><rect height="1" style="fill:rgb(91,110,225);" width="1" x="50" y="100"/></g><g transform="matrix(1,0,0,1,0,-41)"><rect height="1" style="fill:rgb(91,110,225);" width="1.001" x="49" y="100"/></g><g transform="matrix(1,0,0,1,0,-41)"><rect height="1" style="fill:rgb(91,110,225);" width="1" x="48" y="100"/></g><g transform="matrix(1,0,0,1,0,-41)"><rect height="1" style="fill:rgb(91,110,225);" width="1" x="47" y="100"/></g><g transform="matrix(1,0,0,1,0,-41)"><rect height="1" style="fill:rgb(91,110,225);" width="1" x="46" y="100"/></g><g transform="matrix(1,0,0,1,0,-41)"><rect height="1" style="fill:rgb(91,110,225);" width="1" x="45" y="100"/></g><g transform="matrix(1,0,0,1,0,-41)"><rect height="1" style="fill:rgb(91,110,225);" width="1" x="44" y="100"/></g><g transform="matrix(1,0,0,1,0,-41)"><rect height="1" width="1" x="43" y="100"/></g><g transform="matrix(1,0,0,1,0,-43)"><rect height="1" width="1" x="70" y="101"/></g><g transform="matrix(1,0,0,1,0,-43)"><rect height="1" style="fill:rgb(99,155,255);" width="1" x="69" y="101"/></g><g transform="matrix(1,0,0,1,0,-43)"><rect height="1" style="fill:rgb(99,155,255);" width="1" x="68" y="101"/></g><g transform="matrix(1,0,0,1,0,-43)"><rect height="1" width="1.001" x="67" y="101"/></g><g transform="matrix(1,0,0,1,0,-43)"><rect height="1" width="1" x="65" y="101"/></g><g transform="matrix(1,0,0,1,0,-43)"><rect height="1" style="fill:rgb(99,155,255);" width="1" x="64" y="101"/></g><g transform="matrix(1,0,0,1,0,-43)"><rect height="1" width="1" x="63" y="101"/></g><g transform="matrix(1,0,0,1,0,-43)"><rect height="1" width="1" x="57" y="101"/></g><g transform="matrix(1,0,0,1,0,-43)"><rect height="1" style="fill:rgb(99,155,255);" width="1" x="56" y="101"/></g><g transform="matrix(1,0,0,1,0,-43)"><rect height="1" style="fill:rgb(99,155,255);" width="1" x="55" y="101"/></g><g transform="matrix(1,0,0,1,0,-43)"><rect height="1" style="fill:rgb(91,110,225);" width="1" x="54" y="101"/></g><g transform="matrix(1,0,0,1,0,-43)"><rect height="1" style="fill:rgb(91,110,225);" width="1" x="53" y="101"/></g><g transform="matrix(1,0,0,1,0,-43)"><rect height="1" style="fill:rgb(91,110,225);" width="1" x="52" y="101"/></g><g transform="matrix(1,0,0,1,0,-43)"><rect height="1" style="fill:rgb(91,110,225);" width="1" x="51" y="101"/></g><g transform="matrix(1,0,0,1,0,-43)"><rect height="1" style="fill:rgb(91,110,225);" width="1" x="50" y="101"/></g><g transform="matrix(1,0,0,1,0,-43)"><rect height="1" style="fill:rgb(91,110,225);" width="1.001" x="49" y="101"/></g><g transform="matrix(1,0,0,1,0,-43)"><rect height="1" style="fill:rgb(91,110,225);" width="1" x="48" y="101"/></g><g transform="matrix(1,0,0,1,0,-43)"><rect height="1" style="fill:rgb(91,110,225);" width="1" x="47" y="101"/></g><g transform="matrix(1,0,0,1,0,-43)"><rect height="1" style="fill:rgb(91,110,225);" width="1" x="46" y="101"/></g><g transform="matrix(1,0,0,1,0,-43)"><rect height="1" style="fill:rgb(91,110,225);" width="1" x="45" y="101"/></g><g transform="matrix(1,0,0,1,0,-43)"><rect height="1" style="fill:rgb(91,110,225);" width="1" x="44" y="101"/></g><g transform="matrix(1,0,0,1,0,-43)"><rect height="1" width="1" x="43" y="101"/></g><g transform="matrix(1,0,0,1,0,-45)"><rect height="1" width="1" x="69" y="102"/></g><g transform="matrix(1,0,0,1,0,-45)"><rect height="1" width="1" x="68" y="102"/></g><g transform="matrix(1,0,0,1,0,-45)"><rect height="1" width="1" x="64" y="102"/></g><g transform="matrix(1,0,0,1,0,-45)"><rect height="1" width="1" x="56" y="102"/></g><g transform="matrix(1,0,0,1,0,-45)"><rect height="1" width="1" x="55" y="102"/></g><g transform="matrix(1,0,0,1,0,-45)"><rect height="1" style="fill:rgb(99,155,255);" width="1" x="54" y="102"/></g><g transform="matrix(1,0,0,1,0,-45)"><rect height="1" style="fill:rgb(99,155,255);" width="1" x="53" y="102"/></g><g transform="matrix(1,0,0,1,0,-45)"><rect height="1" style="fill:rgb(91,110,225);" width="1" x="52" y="102"/></g><g transform="matrix(1,0,0,1,0,-45)"><rect height="1" style="fill:rgb(91,110,225);" width="1" x="51" y="102"/></g><g transform="matrix(1,0,0,1,0,-45)"><rect height="1" style="fill:rgb(91,110,225);" width="1" x="50" y="102"/></g><g transform="matrix(1,0,0,1,0,-45)"><rect height="1" style="fill:rgb(91,110,225);" width="1.001" x="49" y="102"/></g><g transform="matrix(1,0,0,1,0,-45)"><rect height="1" style="fill:rgb(91,110,225);" width="1" x="48" y="102"/></g><g transform="matrix(1,0,0,1,0,-45)"><rect height="1" style="fill:rgb(91,110,225);" width="1" x="47" y="102"/></g><g transform="matrix(1,0,0,1,0,-45)"><rect height="1" style="fill:rgb(91,110,225);" width="1" x="46" y="102"/></g><g transform="matrix(1,0,0,1,0,-45)"><rect height="1" style="fill:rgb(91,110,225);" width="1" x="45" y="102"/></g><g transform="matrix(1,0,0,1,0,-45)"><rect height="1" width="1" x="44" y="102"/></g><g transform="matrix(1,0,0,1,0,-47.001)"><rect height="1.001" width="1" x="61" y="103"/></g><g transform="matrix(1,0,0,1,0,-47.001)"><rect height="1.001" width="1" x="60" y="103"/></g><g transform="matrix(1,0,0,1,0,-47.001)"><rect height="1.001" width="1" x="59" y="103"/></g><g transform="matrix(1,0,0,1,0,-47.001)"><rect height="1.001" width="1.001" x="58" y="103"/></g><g transform="matrix(1,0,0,1,0,-47.001)"><rect height="1.001" width="1" x="57" y="103"/></g><g transform="matrix(1,0,0,1,0,-47.001)"><rect height="1.001" width="1" x="54" y="103"/></g><g transform="matrix(1,0,0,1,0,-47.001)"><rect height="1.001" width="1" x="53" y="103"/></g><g transform="matrix(1,0,0,1,0,-47.001)"><rect height="1.001" style="fill:rgb(99,155,255);" width="1" x="52" y="103"/></g><g transform="matrix(1,0,0,1,0,-47.001)"><rect height="1.001" style="fill:rgb(99,155,255);" width="1" x="51" y="103"/></g><g transform="matrix(1,0,0,1,0,-47.001)"><rect height="1.001" style="fill:rgb(99,155,255);" width="1" x="50" y="103"/></g><g transform="matrix(1,0,0,1,0,-47.001)"><rect height="1.001" style="fill:rgb(91,110,225);" width="1.001" x="49" y="103"/></g><g transform="matrix(1,0,0,1,0,-47.001)"><rect height="1.001" style="fill:rgb(91,110,225);" width="1" x="48" y="103"/></g><g transform="matrix(1,0,0,1,0,-47.001)"><rect height="1.001" style="fill:rgb(91,110,225);" width="1" x="47" y="103"/></g><g transform="matrix(1,0,0,1,0,-47.001)"><rect height="1.001" style="fill:rgb(91,110,225);" width="1" x="46" y="103"/></g><g transform="matrix(1,0,0,1,0,-47.001)"><rect height="1.001" width="1" x="45" y="103"/></g><g transform="matrix(1,0,0,1,0,-49)"><rect height="1" width="1" x="62" y="104"/></g><g transform="matrix(1,0,0,1,0,-49)"><rect height="1" style="fill:rgb(89,86,82);" width="1" x="61" y="104"/></g><g transform="matrix(1,0,0,1,0,-49)"><rect height="1" style="fill:rgb(105,106,106);" width="1" x="60" y="104"/></g><g transform="matrix(1,0,0,1,0,-49)"><rect height="1" style="fill:rgb(105,106,106);" width="1" x="59" y="104"/></g><g transform="matrix(1,0,0,1,0,-49)"><rect height="1" style="fill:white;" width="1.001" x="58" y="104"/></g><g transform="matrix(1,0,0,1,0,-49)"><rect height="1" style="fill:rgb(89,86,82);" width="1" x="57" y="104"/></g><g transform="matrix(1,0,0,1,0,-49)"><rect height="1" width="1" x="56" y="104"/></g><g transform="matrix(1,0,0,1,0,-49)"><rect height="1" width="1" x="52" y="104"/></g><g transform="matrix(1,0,0,1,0,-49)"><rect height="1" width="1" x="51" y="104"/></g><g transform="matrix(1,0,0,1,0,-49)"><rect height="1" style="fill:rgb(99,155,255);" width="1" x="50" y="104"/></g><g transform="matrix(1,0,0,1,0,-49)"><rect height="1" style="fill:rgb(99,155,255);" width="1.001" x="49" y="104"/></g><g transform="matrix(1,0,0,1,0,-49)"><rect height="1" style="fill:rgb(99,155,255);" width="1" x="48" y="104"/></g><g transform="matrix(1,0,0,1,0,-49)"><rect height="1" style="fill:rgb(99,155,255);" width="1" x="47" y="104"/></g><g transform="matrix(1,0,0,1,0,-49)"><rect height="1" width="1" x="46" y="104"/></g><g transform="matrix(1,0,0,1,0,-51)"><rect height="1" width="1" x="63" y="105"/></g><g transform="matrix(1,0,0,1,0,-51)"><rect height="1" style="fill:rgb(105,106,106);" width="1" x="62" y="105"/></g><g transform="matrix(1,0,0,1,0,-51)"><rect height="1" style="fill:rgb(89,86,82);" width="1" x="61" y="105"/></g><g transform="matrix(1,0,0,1,0,-51)"><rect height="1" width="1" x="60" y="105"/></g><g transform="matrix(1,0,0,1,0,-51)"><rect height="1" width="1" x="59" y="105"/></g><g transform="matrix(1,0,0,1,0,-51)"><rect height="1" width="1.001" x="58" y="105"/></g><g transform="matrix(1,0,0,1,0,-51)"><rect height="1" style="fill:rgb(89,86,82);" width="1" x="57" y="105"/></g><g transform="matrix(1,0,0,1,0,-51)"><rect height="1" style="fill:rgb(105,106,106);" width="1" x="56" y="105"/></g><g transform="matrix(1,0,0,1,0,-51)"><rect height="1" width="1" x="55" y="105"/></g><g transform="matrix(1,0,0,1,0,-51)"><rect height="1" width="1" x="50" y="105"/></g><g transform="matrix(1,0,0,1,0,-51)"><rect height="1" width="1.001" x="49" y="105"/></g><g transform="matrix(1,0,0,1,0,-51)"><rect height="1" width="1" x="48" y="105"/></g><g transform="matrix(1,0,0,1,0,-51)"><rect height="1" width="1" x="47" y="105"/></g><g transform="matrix(1,0,0,1,0,-53)"><rect height="1" width="1" x="63" y="106"/></g><g transform="matrix(1,0,0,1,0,-53)"><rect height="1" style="fill:rgb(105,106,106);" width="1" x="62" y="106"/></g><g transform="matrix(1,0,0,1,0,-53)"><rect height="1" width="1" x="61" y="106"/></g><g transform="matrix(1,0,0,1,0,-53)"><rect height="1" style="fill:rgb(172,50,50);" width="1" x="60" y="106"/></g><g transform="matrix(1,0,0,1,0,-53)"><rect height="1" style="fill:rgb(172,50,50);" width="1" x="59" y="106"/></g><g transform="matrix(1,0,0,1,0,-53)"><rect height="1" style="fill:rgb(217,87,99);" width="1.001" x="58" y="106"/></g><g transform="matrix(1,0,0,1,0,-53)"><rect height="1" width="1" x="57" y="106"/></g><g transform="matrix(1,0,0,1,0,-53)"><rect height="1" style="fill:rgb(105,106,106);" width="1" x="56" y="106"/></g><g transform="matrix(1,0,0,1,0,-53)"><rect height="1" width="1" x="55" y="106"/></g><g transform="matrix(1,0,0,1,0,-55)"><rect height="1" width="1" x="62" y="107"/></g><g transform="matrix(1,0,0,1,0,-55)"><rect height="1" style="fill:rgb(217,87,99);" width="1" x="61" y="107"/></g><g transform="matrix(1,0,0,1,0,-55)"><rect height="1" style="fill:rgb(172,50,50);" width="1" x="60" y="107"/></g><g transform="matrix(1,0,0,1,0,-55)"><rect height="1" style="fill:rgb(172,50,50);" width="1" x="59" y="107"/></g><g transform="matrix(1,0,0,1,0,-55)"><rect height="1" style="fill:rgb(217,87,99);" width="1.001" x="58" y="107"/></g><g transform="matrix(1,0,0,1,0,-55)"><rect height="1" style="fill:rgb(172,50,50);" width="1" x="57" y="107"/></g><g transform="matrix(1,0,0,1,0,-55)"><rect height="1" width="1" x="56" y="107"/></g><g transform="matrix(1,0,0,1,0,-57)"><rect height="1" width="1" x="62" y="108"/></g><g transform="matrix(1,0,0,1,0,-57)"><rect height="1" style="fill:rgb(217,87,99);" width="1" x="61" y="108"/></g><g transform="matrix(1,0,0,1,0,-57)"><rect height="1" style="fill:rgb(172,50,50);" width="1" x="60" y="108"/></g><g transform="matrix(1,0,0,1,0,-57)"><rect height="1" style="fill:rgb(172,50,50);" width="1" x="59" y="108"/></g><g transform="matrix(1,0,0,1,0,-57)"><rect height="1" style="fill:rgb(217,87,99);" width="1.001" x="58" y="108"/></g><g transform="matrix(1,0,0,1,0,-57)"><rect height="1" style="fill:rgb(172,50,50);" width="1" x="57" y="108"/></g><g transform="matrix(1,0,0,1,0,-57)"><rect height="1" width="1" x="56" y="108"/></g><g transform="matrix(1,0,0,1,0,-59)"><rect height="1" width="1" x="66" y="109"/></g><g transform="matrix(1,0,0,1,0,-59)"><rect height="1" width="1" x="65" y="109"/></g><g transform="matrix(1,0,0,1,0,-59)"><rect height="1" width="1" x="62" y="109"/></g><g transform="matrix(1,0,0,1,0,-59)"><rect height="1" style="fill:rgb(217,87,99);" width="1" x="61" y="109"/></g><g transform="matrix(1,0,0,1,0,-59)"><rect height="1" style="fill:rgb(172,50,50);" width="1" x="60" y="109"/></g><g transform="matrix(1,0,0,1,0,-59)"><rect height="1" style="fill:rgb(172,50,50);" width="1" x="59" y="109"/></g><g transform="matrix(1,0,0,1,0,-59)"><rect height="1" style="fill:rgb(217,87,99);" width="1.001" x="58" y="109"/></g><g transform="matrix(1,0,0,1,0,-59)"><rect height="1" style="fill:rgb(172,50,50);" width="1" x="57" y="109"/></g><g transform="matrix(1,0,0,1,0,-59)"><rect height="1" width="1" x="56" y="109"/></g><g transform="matrix(1,0,0,1,0,-59)"><rect height="1" width="1" x="53" y="109"/></g><g transform="matrix(1,0,0,1,0,-59)"><rect height="1" width="1" x="52" y="109"/></g><g transform="matrix(1,0,0,1,0,-61)"><rect height="1" width="1" x="62" y="110"/></g><g transform="matrix(1,0,0,1,0,-61)"><rect height="1" style="fill:rgb(217,87,99);" width="1" x="61" y="110"/></g><g transform="matrix(1,0,0,1,0,-61)"><rect height="1" style="fill:rgb(172,50,50);" width="1" x="60" y="110"/></g><g transform="matrix(1,0,0,1,0,-61)"><rect height="1" style="fill:rgb(172,50,50);" width="1" x="59" y="110"/></g><g transform="matrix(1,0,0,1,0,-61)"><rect height="1" style="fill:white;" width="1.001" x="58" y="110"/></g><g transform="matrix(1,0,0,1,0,-61)"><rect height="1" style="fill:rgb(172,50,50);" width="1" x="57" y="110"/></g><g transform="matrix(1,0,0,1,0,-61)"><rect height="1" width="1" x="56" y="110"/></g><g transform="matrix(1,0,0,1,0,-63)"><rect height="1" width="1" x="62" y="111"/></g><g transform="matrix(1,0,0,1,0,-63)"><rect height="1" style="fill:rgb(217,87,99);" width="1" x="61" y="111"/></g><g transform="matrix(1,0,0,1,0,-63)"><rect height="1" style="fill:rgb(217,87,99);" width="1" x="60" y="111"/></g><g transform="matrix(1,0,0,1,0,-63)"><rect height="1" style="fill:white;" width="1" x="59" y="111"/></g><g transform="matrix(1,0,0,1,0,-63)"><rect height="1" style="fill:rgb(217,87,99);" width="1.001" x="58" y="111"/></g><g transform="matrix(1,0,0,1,0,-63)"><rect height="1" style="fill:rgb(217,87,99);" width="1" x="57" y="111"/></g><g transform="matrix(1,0,0,1,0,-63)"><rect height="1" width="1" x="56" y="111"/></g><g transform="matrix(1,0,0,1,0,-65.001)"><rect height="1.001" width="1" x="61" y="112"/></g><g transform="matrix(1,0,0,1,0,-65.001)"><rect height="1.001" width="1" x="60" y="112"/></g><g transform="matrix(1,0,0,1,0,-65.001)"><rect height="1.001" width="1" x="59" y="112"/></g><g transform="matrix(1,0,0,1,0,-65.001)"><rect height="1.001" width="1.001" x="58" y="112"/></g><g transform="matrix(1,0,0,1,0,-65.001)"><rect height="1.001" width="1" x="57" y="112"/></g><g transform="matrix(1,0,0,1,0,-67)"><rect height="1" width="1" x="64" y="113"/></g><g transform="matrix(1,0,0,1,0,-67)"><rect height="1" width="1" x="54" y="113"/></g><g transform="matrix(1,0,0,1,0,-69)"><rect height="1" width="1" x="65" y="114"/></g><g transform="matrix(1,0,0,1,0,-69)"><rect height="1" width="1" x="53" y="114"/></g><g transform="matrix(1,0,0,1,0,-71)"><rect height="1" width="1" x="59" y="115"/></g><g transform="matrix(1,0,0,1,0,-73)"><rect height="1" width="1" x="59" y="116"/></g></g></g></svg>